<svg xmlns="http://www.w3.org/2000/svg" xmlns:xlink="http://www.w3.org/1999/xlink" width="300" zoomAndPan="magnify" viewBox="0 0 224.87999 112.499997" height="150" preserveAspectRatio="xMidYMid meet" version="1.0"><defs><g/></defs><g fill="#ff66c4" fill-opacity="1"><g transform="translate(6.689166, 51.761777)"><g><path d="M 1.816406 0 L 4.453125 0 L 4.453125 -12.816406 L 16.542969 -5.613281 L 28.628906 -12.816406 L 28.628906 0 L 31.265625 0 L 31.265625 -15.90625 L 28.628906 -15.90625 L 16.542969 -8.726562 L 4.453125 -15.90625 L 1.816406 -15.90625 Z M 1.816406 0 "/></g></g></g><g fill="#cb6ce6" fill-opacity="1"><g transform="translate(38.641421, 51.761777)"><g><path d="M 1.816406 0 L 4.453125 0 L 4.453125 -6.636719 L 25.996094 -6.636719 L 25.996094 0 L 28.628906 0 L 28.628906 -15.90625 L 1.816406 -15.90625 Z M 4.453125 -9.269531 L 4.453125 -13.269531 L 25.996094 -13.269531 L 25.996094 -9.269531 Z M 4.453125 -9.269531 "/></g></g></g><g fill="#5e17eb" fill-opacity="1"><g transform="translate(67.952378, 51.761777)"><g><path d="M 1.816406 0 L 4.453125 0 L 15.222656 -6.40625 L 25.996094 0 L 28.628906 0 L 28.628906 -1.523438 L 17.816406 -7.953125 L 28.628906 -14.382812 L 28.628906 -15.90625 L 25.996094 -15.90625 L 15.222656 -9.5 L 4.453125 -15.90625 L 1.816406 -15.90625 L 1.816406 -14.382812 L 12.632812 -7.953125 L 1.816406 -1.523438 Z M 1.816406 0 "/></g></g></g><g fill="#004aad" fill-opacity="1"><g transform="translate(97.263338, 51.761777)"><g><path d="M 1.816406 0 L 28.628906 0 L 28.628906 -2.636719 L 4.453125 -2.636719 L 4.453125 -6.636719 L 28.628906 -6.636719 L 28.628906 -9.269531 L 4.453125 -9.269531 L 4.453125 -13.269531 L 28.628906 -13.269531 L 28.628906 -15.90625 L 1.816406 -15.90625 Z M 1.816406 0 "/></g></g></g><g fill="#5271ff" fill-opacity="1"><g transform="translate(126.574294, 51.761777)"><g><path d="M 1.816406 0 L 4.453125 0 L 4.453125 -12.816406 L 25.996094 0 L 28.628906 0 L 28.628906 -15.90625 L 25.996094 -15.90625 L 25.996094 -3.089844 L 4.453125 -15.90625 L 1.816406 -15.90625 Z M 1.816406 0 "/></g></g></g><g fill="#38b6ff" fill-opacity="1"><g transform="translate(155.885251, 51.761777)"><g><path d="M 1.816406 0 L 28.628906 0 L 28.628906 -2.636719 L 4.453125 -2.636719 L 4.453125 -13.269531 L 28.628906 -13.269531 L 28.628906 -15.90625 L 1.816406 -15.90625 Z M 1.816406 0 "/></g></g></g><g fill="#5ce1e6" fill-opacity="1"><g transform="translate(185.196208, 51.761777)"><g><path d="M 1.816406 0 L 28.628906 0 L 28.628906 -2.636719 L 4.453125 -2.636719 L 4.453125 -6.636719 L 28.628906 -6.636719 L 28.628906 -9.269531 L 4.453125 -9.269531 L 4.453125 -13.269531 L 28.628906 -13.269531 L 28.628906 -15.90625 L 1.816406 -15.90625 Z M 1.816406 0 "/></g></g></g><g fill="#ffffff" fill-opacity="1"><g transform="translate(6.689166, 72.958401)"><g><path d="M 1.816406 0 L 28.628906 0 L 28.628906 -15.90625 L 1.816406 -15.90625 Z M 4.453125 -2.636719 L 4.453125 -13.269531 L 25.996094 -13.269531 L 25.996094 -2.636719 Z M 4.453125 -2.636719 "/></g></g></g><g fill="#ffffff" fill-opacity="1"><g transform="translate(35.998016, 72.958401)"><g><path d="M 1.816406 0 L 28.628906 0 L 28.628906 -9.269531 L 17.269531 -9.269531 L 17.269531 -6.636719 L 25.996094 -6.636719 L 25.996094 -2.636719 L 4.453125 -2.636719 L 4.453125 -13.269531 L 25.996094 -13.269531 L 25.996094 -11.269531 L 28.628906 -11.269531 L 28.628906 -15.90625 L 1.816406 -15.90625 Z M 1.816406 0 "/></g></g></g><g fill="#ffffff" fill-opacity="1"><g transform="translate(65.306867, 72.958401)"><g><path d="M 1.816406 0 L 23.175781 0 L 23.175781 -2.636719 L 13.816406 -2.636719 L 13.816406 -8.019531 L 23.175781 -8.019531 L 23.175781 -10.65625 L 1.816406 -10.65625 L 1.816406 -8.019531 L 11.179688 -8.019531 L 11.179688 -2.636719 L 1.816406 -2.636719 Z M 6.816406 -13.269531 L 18.179688 -13.269531 L 18.179688 -15.90625 L 6.816406 -15.90625 Z M 6.816406 -13.269531 "/></g></g></g><g fill="#ffffff" fill-opacity="1"><g transform="translate(89.162877, 72.958401)"><g><path d="M 1.816406 0 L 28.628906 0 L 28.628906 -2.636719 L 4.453125 -2.636719 L 4.453125 -6.636719 L 28.628906 -6.636719 L 28.628906 -9.269531 L 4.453125 -9.269531 L 4.453125 -13.269531 L 28.628906 -13.269531 L 28.628906 -15.90625 L 1.816406 -15.90625 Z M 1.816406 0 "/></g></g></g><g fill="#ffffff" fill-opacity="1"><g transform="translate(118.471732, 72.958401)"><g><path d="M 1.816406 0 L 4.453125 0 L 4.453125 -6.636719 L 14.839844 -6.636719 L 25.996094 0 L 28.628906 0 L 28.628906 -1.523438 L 20.042969 -6.636719 L 28.628906 -6.636719 L 28.628906 -15.90625 L 1.816406 -15.90625 Z M 4.453125 -9.269531 L 4.453125 -13.269531 L 25.996094 -13.269531 L 25.996094 -9.269531 Z M 4.453125 -9.269531 "/></g></g></g></svg>